{"title":"Frozen Fever (2015) BluRay 720p x264 AAC [JRR]","uid":12180228,"size":95534562,"categoryP":"video","categoryS":"hd___movies","magnet":"?xt=urn:btih:384102447c0fc64562469c2e56e86310231e254d&amp;dn=Frozen+Fever+%282015%29+BluRay+720p+x264+AAC+%5BJRR%5D&amp;tr=udp%3A%2F%2Ftracker.openbittorrent.com%3A80&amp;tr=udp%3A%2F%2Fopen.demonii.com%3A1337&amp;tr=udp%3A%2F%2Ftracker.coppersurfer.tk%3A6969&amp;tr=udp%3A%2F%2Fexodus.desync.com%3A6969","seeders":1,"leechers":0,"uploader":"JRRtv","files":6,"time":1438422236,"description":"General\nFormat : MPEG-4\nFile size : 91.1 MiB\nDuration : 7mn 57s\nOverall bit rate : 1 600 Kbps\n\nVideo\nID : 1\nFormat : AVC\nFormat/Info : Advanced Video Codec\nFormat profile : &lt;a class=&quot;__cf_email__&quot; href=&quot;/cdn-cgi/l/email-protection&quot; data-cfemail=&quot;723a1b151a323e465c43&quot;&gt;[email&amp;#160;protected]&lt;/a&gt;&lt;script data-cfhash='f9e31' type=&quot;text/javascript&quot;&gt;\n/* &lt;![CDATA[ */!function(){try{var t=&quot;currentScript&quot;in document?document.currentScript:function(){for(var t=document.getElementsByTagName(&quot;script&quot;),e=t.length;e--;)if(t[e].getAttribute(&quot;data-cfhash&quot;))return t[e]}();if(t&amp;&amp;t.previousSibling){var e,r,n,i,c=t.previousSibling,a=c.getAttribute(&quot;data-cfemail&quot;);if(a){for(e=&quot;&quot;,r=parseInt(a.substr(0,2),16),n=2;a.length-n;n+=2)i=parseInt(a.substr(n,2),16)^r,e+=String.fromCharCode(i);e=document.createTextNode(e),c.parentNode.replaceChild(e,c)}t.parentNode.removeChild(t);}}catch(u){}}()/* ]]&gt; */&lt;/script&gt;\nFormat settings, CABAC : Yes\nFormat settings, ReFrames : 5 frames\nDuration : 7mn 57s\nBit rate : 1 403 Kbps\nWidth : 1 280 pixels\nHeight : 576 pixels\nFrame rate : 23.976 fps\nColor space : YUV\nChroma subsampling : 4:2:0\nBit depth : 8 bits\nStream size : 79.9 MiB (88%)\n\nAudio\nID : 2\nFormat : AAC\nFormat/Info : Advanced Audio Codec\nBit rate : 192 Kbps\nMaximum bit rate : 207 Kbps\nChannel(s) : 2 channels\nChannel(s)_Original : 6 channels\nSampling rate : 48.0 KHz\nStream size : 10.8 MiB (12%)\nLanguage : English","torrent":{"xt":"urn:btih:384102447c0fc64562469c2e56e86310231e254d","amp;dn":"Frozen+Fever+%282015%29+BluRay+720p+x264+AAC+%5BJRR%5D","amp;tr":["udp%3A%2F%2Ftracker.openbittorrent.com%3A80","udp%3A%2F%2Fopen.demonii.com%3A1337","udp%3A%2F%2Ftracker.coppersurfer.tk%3A6969","udp%3A%2F%2Fexodus.desync.com%3A6969"],"infoHash":"384102447c0fc64562469c2e56e86310231e254d","infoHashBuffer":{"type":"Buffer","data":[56,65,2,68,124,15,198,69,98,70,156,46,86,232,99,16,35,30,37,77]},"announce":[],"urlList":[]}}